<svg xmlns="http://www.w3.org/2000/svg" viewBox="0 0 335.9 186.6"><defs><style>.cls-1{fill:#7a1b1b}.cls-2{fill:#bba881}.cls-3{fill:#fff}.cls-5{fill:#8a1011}</style></defs><g id="Layer_2" data-name="Layer 2"><g id="Layer_1-2" data-name="Layer 1"><path d="m174 77-7-12-8 12-5-3v-2l8-11 1-1-4-6-6 4-6 4h-2l-23-31a8 8 0 0 1 0-1l1-1 16-10c3-2 5-2 7 1a313 313 0 0 0 17 28c1 1 2 2 1 3l3 4 3-4v-3c7-9 12-18 17-28 2-2 4-3 6-2a7 7 0 0 1 1 1l17 11h1l-6 9-17 22-2 1-12-8-5 6 10 14Zm-10-27-2-2-17-27c-1-3-3-3-6-2l-13 9-3 3 23 30Zm47-19-1-1-16-11c-2-1-4-1-6 2a317 317 0 0 1-17 27l-1 2 18 11Zm-52 45 13-20c2-2 1-3-1-5a1 1 0 0 0-1 0l-14 21a2 2 0 0 0 1 3l2 1Zm11-10h-1v1l6 9 2-1v-4l-2-3-4-5v2l6 8-2 1Zm-4-10-3-5c-2 1-3 3-2 4l3 4Z"/><path class="cls-1" d="m149 20 4-4-9-4c-2-2-4-4-4-7s4-4 7-5a5 5 0 0 1 0 1c-1 2-4 4-4 6s9 4 12 3a29 29 0 0 1 7-1h10l6 1a61 61 0 0 0 12-2c2-1 2-3 0-4l-4-4c4 0 7 2 8 5 0 2-3 5-5 7s-5 3-9 4l6 4h-5c-4-1-6 1-7 5a71 71 0 0 0-2 7c0 3-2 5-5 5s-5-1-6-4a7 7 0 0 0 0-1c-1-4-1-7-3-10-2-5-6 0-9-2Z"/><path d="M112 77V56c7-2 11-1 11 7a59 59 0 0 0 0 7c0 6-2 7-8 7Zm4-3c4-1 4-2 3-13 0-2-1-3-3-2ZM87 54l4 3v4a26 26 0 0 0-3-2 15 15 0 0 0-2-1l-1 3a40 40 0 0 0 5 5c2 3 3 6 1 9-1 2-4 2-6 2l-3-4 1-2a22 22 0 0 1 2 1l2 2 1-4c-1-2-4-3-5-6a13 13 0 0 1 0-7l4-3ZM71 63l4 2-4 3v6a20 20 0 0 1 4 0l2 2-2 1h-7V55c3 0 6-1 9 1l-1 2h-5ZM102 78l-2-3V65c0-3 2-7-3-8v-2h10v1l-4 3v18ZM0 172h38v1H0ZM298 169h38v1h-38Z"/><path class="cls-2" d="m164 50-18 11-23-30 3-3 13-9c3-1 5-1 6 2a313 313 0 0 0 19 29Zm-16 8 12-8a1 1 0 0 0 1-2l-8-12v1l-7 17a2 2 0 0 0 0 1l2 3Zm-11-15 2-4 5-16a3 3 0 0 0-1-3 2 2 0 0 0-3 1l-6 17a2 2 0 0 0 0 1l3 4Zm7 10 7-17c1-2 0-3-1-4l-7 16 1 5Zm-12-17a6251 6251 0 0 0 1-9 32 32 0 0 1-2 5c-1 2-1 3 1 4Zm-7-5 11 15-11-15ZM211 31l-23 30-18-11 1-2a317 317 0 0 0 17-27c2-3 3-3 6-2l16 11 1 1Zm-30 5-8 12v2l12 8 2-3a2 2 0 0 0 0-2l-4-10-2-7Zm15 7 3-4a2 2 0 0 0 1-2l-6-16a2 2 0 0 0-3-1 3 3 0 0 0-2 3l2 5Zm-12-11c-2 2-2 2-1 4l5 13 1 4 2-2a1 1 0 0 0 0-1l-7-18Zm12-10 5 14c2-1 2-2 1-4a32 32 0 0 1-2-5 7 7 0 0 0-4-5Zm2 24 11-15-11 15ZM159 76l-2-1a2 2 0 0 1-1-3l14-21a1 1 0 0 1 1 0c2 2 3 3 1 5l-13 20Zm9-19-11 16 2 1v-1l9-13a2 2 0 0 0 0-3Zm3-4c-2 2-2 2-1 3 1-1 2-2 1-3ZM170 66l5 8 2-1-6-8v-2l4 5 2 3v4l-2 1-6-9v-1ZM166 56l-2 3-3-4c-1-2 0-3 2-4Zm-3-3v3c2-1 0-2 0-3Z"/><path class="cls-3" d="M116 74V59c3-1 3 0 3 2 1 11 1 12-3 13Z"/><path d="m148 58-2-3a2 2 0 0 1 0-1l7-17v-1l8 12a1 1 0 0 1-1 2ZM137 43l-3-4a2 2 0 0 1 0-1l6-17a2 2 0 0 1 3-1 3 3 0 0 1 1 3l-5 16Zm5-23-1 2a1 1 0 0 0 1 1 1 1 0 0 0 1-1l-1-2ZM144 53l-1-5 7-16c1 1 2 2 1 4l-7 17Z"/><path d="M132 36c-2-1-2-2-1-4a32 32 0 0 0 2-5c1-3 3-4 5-5l-6 14Z" style="fill:#783316"/><path d="m125 31 11 15-11-15ZM181 36l2 7 4 10a2 2 0 0 1 0 2l-2 3-12-8v-2ZM196 43l-5-15-2-5a3 3 0 0 1 2-3 2 2 0 0 1 3 1l6 16a2 2 0 0 1-1 2l-3 4Zm-3-21-2-1v1a1 1 0 0 0 0 1l2-1ZM184 32l7 18a1 1 0 0 1 0 1l-2 2-1-4-5-13c-1-2-1-2 1-4Z"/><path class="cls-1" d="M196 22a7 7 0 0 1 4 5 32 32 0 0 0 2 5 2368 2368 0 0 0-7-10Z"/><path d="m198 46 11-15ZM168 57a2 2 0 0 1 0 3l-9 13v1l-3-1ZM171 53c1 1 0 2-1 3-1-1-1-1 1-3ZM163 53c0 1 2 2 0 3v-3Z"/><path class="cls-3" d="m142 20 1 2a1 1 0 0 1-1 1 1 1 0 0 1-1-1l1-2ZM193 22l-2 1a1 1 0 0 1 0-1v-1l2 1Z"/><path class="cls-5" d="M27 157v-7a21 21 0 0 0 5 1q4 0 5-2l1-7V99h-7v-6h20v6h-6v43a32 32 0 0 1-1 9 9 9 0 0 1-4 5 13 13 0 0 1-7 2 19 19 0 0 1-6-1ZM61 136V99h-7v-6h41v15h-6v-9H68v15h18v6H68v16h21v-9h6v15H54v-6ZM105 136V99h-7v-6h16l22 38V99h-7v-6h20v6h-7v44h-8l-23-42v35h7v6H98v-6ZM156 136V99h-6v-6h20v6h-6v37h5v6h-19v-6Zm8-20 16-17h-6v-6h19v6h-5l-15 17 16 20h5v6h-20v-6h5ZM202 136V99h-6v-6h18v6h-5v37h5v6h-18v-6ZM224 136V99h-7v-6h17l21 38V99h-7v-6h20v6h-7v44h-8l-23-42v35h7v6h-20v-6ZM275 102v-9h8v8a23 23 0 0 1 0 6 6 6 0 0 1-3 3 10 10 0 0 1-5 2v-4q4-1 4-5v-1ZM292 142v-17h6v4q4 8 11 8a9 9 0 0 0 7-2 7 7 0 0 0 2-6q0-4-2-5t-8-3a57 57 0 0 1-9-4 13 13 0 0 1-5-4 12 12 0 0 1-2-7 13 13 0 0 1 4-10 15 15 0 0 1 10-3 18 18 0 0 1 11 3v-3h6v15h-6v-3a12 12 0 0 0-10-6 9 9 0 0 0-7 2 6 6 0 0 0-2 4 6 6 0 0 0 1 4 6 6 0 0 0 3 2 59 59 0 0 0 7 2 52 52 0 0 1 9 3 13 13 0 0 1 5 5 15 15 0 0 1 2 8 13 13 0 0 1-4 10 15 15 0 0 1-11 4 18 18 0 0 1-12-5v4Z"/><path d="M55 182v-25h-4v-4h11a31 31 0 0 1 7 0 7 7 0 0 1 4 3 8 8 0 0 1 2 5 9 9 0 0 1-1 5 7 7 0 0 1-3 2 8 8 0 0 1 4 4 9 9 0 0 1 2 5 9 9 0 0 1-2 4 8 8 0 0 1-3 3 12 12 0 0 1-4 2 36 36 0 0 1-6 0H51v-4Zm5-15h3q4 0 5-2a5 5 0 0 0 2-3q0-5-7-5h-3Zm0 15h2a28 28 0 0 0 5 0 5 5 0 0 0 3-2 6 6 0 0 0 1-4 5 5 0 0 0-1-3 5 5 0 0 0-2-2 19 19 0 0 0-5 0h-3ZM87 157v17a24 24 0 0 0 1 5 4 4 0 0 0 2 3 7 7 0 0 0 4 1 9 9 0 0 0 4-1 4 4 0 0 0 2-3 19 19 0 0 0 1-5v-17h-4v-4h13v4h-4v17a31 31 0 0 1 0 6 8 8 0 0 1-2 3 9 9 0 0 1-4 3 15 15 0 0 1-6 1 18 18 0 0 1-6-1 8 8 0 0 1-4-3 9 9 0 0 1-1-3 28 28 0 0 1-1-6v-17h-4v-4h13v4ZM122 182v-25h-7v9h-4v-13h27v12h-4v-8h-7v25h5v4h-14v-4ZM169 173l5 2a15 15 0 0 1-6 9 18 18 0 0 1-10 3q-8 0-13-5a17 17 0 0 1-4-12q0-8 4-13a16 16 0 0 1 12-5 17 17 0 0 1 11 4v-3h5v11h-5a11 11 0 0 0-4-5 12 12 0 0 0-6-2 10 10 0 0 0-8 3 13 13 0 0 0-4 9 13 13 0 0 0 4 10 11 11 0 0 0 8 3 11 11 0 0 0 7-2 13 13 0 0 0 4-7ZM181 182v-25h-4v-4h13v4h-4v10h15v-10h-4v-4h12v4h-3v25h3v4h-12v-4h4v-11h-15v11h4v4h-13v-4ZM216 182v-25h-4v-4h28v10h-4v-6h-15v10h13v4h-13v11h15v-6h4v10h-28v-4ZM247 182v-25h-5v-4h14a27 27 0 0 1 6 1 7 7 0 0 1 4 2 8 8 0 0 1 2 6q0 6-7 8l6 12h4v4h-7l-8-15h-4v11h4v4h-14v-4Zm5-16h3a17 17 0 0 0 5 0 4 4 0 0 0 2-1 5 5 0 0 0 1-3 4 4 0 0 0-1-3 4 4 0 0 0-2-2 19 19 0 0 0-4 0h-4ZM273 186v-12h4v3c2 4 4 5 8 5a6 6 0 0 0 4-1 5 5 0 0 0 2-4 4 4 0 0 0-2-3 16 16 0 0 0-5-2 39 39 0 0 1-7-3 9 9 0 0 1-3-3 8 8 0 0 1-1-4 9 9 0 0 1 2-7 10 10 0 0 1 7-3 12 12 0 0 1 8 3v-2h4v10h-4v-2a8 8 0 0 0-7-4 6 6 0 0 0-4 1 4 4 0 0 0-1 5 4 4 0 0 0 2 2 39 39 0 0 0 4 1 36 36 0 0 1 7 2 9 9 0 0 1 3 4 10 10 0 0 1 1 5 9 9 0 0 1-3 7 11 11 0 0 1-7 3 12 12 0 0 1-8-4v3Z"/><text transform="translate(200 75)" style="font-size:29.63px;font-family:Rockwell-Bold,Rockwell;font-weight:700">1888</text></g></g></svg>