<svg xmlns="http://www.w3.org/2000/svg" viewBox="0 0 353.73 459.99"><defs><style>.cls-1{fill:none;stroke:#d94a4a;}.cls-1,.cls-2{stroke-miterlimit:10;stroke-width:3px;}.cls-2{fill:#8a1011;stroke:#feecc6;}.cls-3{fill:#303030;}.cls-4{fill:#fff;}</style></defs><g id="Layer_2" data-name="Layer 2"><g id="Layer_1-2" data-name="Layer 1"><path class="cls-1" d="M83.05,444.68s15.31,1.18,14.53,10.6,6.67-4.32,8.24-10.21,9.43,0,9.43,0,3.14-5.89,3.53-7.07,32.2,15.32,33.77,15.71,13-23.56,13-23.56,44.38,13.35,46.34,13S213,436,213,436l22.39,1.18-2.36-9.43,19.63,14.14,22.78-1.57,11.39,7.46,22-9.43,2.36,3.15,6.28-7.07,11-1.18,3.14-16.49-18.06,2.74-2.36-9.42s-12.56-.39-11.78-1.57,16.5-1.18,16.5-1.18l4.71-9s-6.68-2-7.07-2.36S325,396,325,396l5.5-3.53-4.32-5.89,7.85,2s23.17-22,17.28-36.91-27.49-22.78-37.31-22-8,9-8,9-6.55-.79-8.64-6.28,1.57-5,8.64-7.6-.79-19.11-4.19-25.4.26-4.19,3.67-5.76-3.93-12.3-7.6-18.85,1.77-7.2,4.72-9.95-5.5-8.24-9.63-11.58-5.69-18.26-19.63-18.85-7.86-45.16-5.89-52-7.27-.78-12-19.37-13.1-11.78-17.55-12.3-17.28,5-19.37-.26,7.85-4.19,11.52-3.66,2.35-1.57,4.19-4.45,13.09,9.42,12.56-.53-6.54-9.42-6.54-9.42l2.88-3.4s29.58-26.7,29.84-38,9.17-6.55,9.17-14.4-29.33-12.83-34-12S237.38,58,234,60.35s-9.42,6.28-11.52,5-13.09,2.1-12.83-1.57,5.24-8.11,7.6-6a4.62,4.62,0,0,0,5,.79s4.71-4.19,5.24-5.5-3.67-1.57-5.76-1.57-2.62-1.31-1.84-2.1,30.64-20.94,31.42-22.25,5.76-7.85,6-11.78-36.91-5.5-37.43-3.4-3.93,5.5-3.93,5.5a40.72,40.72,0,0,0-1.57-7.33c-1.05-2.88-10.21-12.83-11.78-6.55s-2.62,10.21-4.19,10.21-11,3.67,2.62,9.43-1.84,5.76-6.81,1.57-5.76-5.24-4.71.52l.26,6L184,27.37s-3.73,3.8.59,7.33,4.71,2.94,2.16,4.71-3.54.39-6.68-2.94-4.12,2.94-2.35,6.67-1.77,2.16-3.15,0-3.53-6.67-5.1-3.73,2,13,5.1,16.89,1.38,16.49,1,17.08-9.82-1.77-8.84,1.37,10.41,5.3,7.26,8-7.06,3.34-10,.2-11.19,2.35-6.29,8,1.77,5.89-2.16,4.12-9.62-3.54-9.23.39a36.06,36.06,0,0,0,.59,4.52s-6.67-.79-5.3,2.35,7.07,1.18,8.25,3.73-2.16,7.66-5.69,7.86-10.8-1-6.68,3.53,17.87,1.77,21.21-3.14,4.51-6.48,5.5-7.26,4.91-3.73,4.91-3.73l5.94-3.35.78,3.14-8.64,5.89L164.38,115l-5.69,5.5c.39,3.93-.79,12.57-.79,12.57l-8.44,5.1s5.3.59,7.07-.59-5.69,6.29-5.69,6.29l3.53,3.53s-6.68,3.53-7.46,9.82a20.79,20.79,0,0,1-6.68,12.17c-1.18.79-2,4.71,1.57,4.91s7.86-2.36,7.86-2.36l2.35-6.87,1.38-4.12,2.16-7.27,5.1-3.34.59-6.28-1.57-5.1,17.08-10.22s-.59,9,1.18,13.16,8.64,5.3,8.64,5.3L176,145.81s-3.73,10.8-3.73,11.78,5.5,11.39,5.5,11.39l-8.64,8.84-8.25,11.78-.78,6.87s-4.91.79-5.5,1,9,7.65,9,7.65l2.55-3.33,8.84,13,3.14-4.13s-.59-8.24-.59-8.64,8.64,10.8,8.64,10.8l5.89-1.18s7.07-6.67,9.82-3.53,6.08-3.33,6.08-3.33l5.11,1.76,5.69.2-1.17,2.75s-9.43-1.57-10.41,2-10.41,14.92-10.41,14.92a29.42,29.42,0,0,1,4.72,9,10.69,10.69,0,0,1-1,9.23l2.16,2,3.93-2-.39,7.27v1l4.51,1.37,6.09-7.07,1.38,3.93L213.67,257l1.77,2.75-1,2.75-7.65-1.18L205.23,267l5.5,4.13-.2,2.75-7.86,5.69,1.18,6.68,10.21,7.26-3.53,3.93-7.27-9.58-3.14,2.94,2.94,4.52L199.73,299,197.17,292s-6.08-2.94-7.85-.39-4.91,3.34-6.68,1.18-3.92-5.11-3.92-5.11a37.72,37.72,0,0,0-3.54,3.93c-.2.59-6.87.39-6.87.39l2.36-5.1-9.43-10-5.89,5.5L161,293.72l-7.46,9s-7.65,4.91-7.65,4.12,3.14,7.27,3.14,7.27l10.8-7.86,6.28,8,.2,14.92L148.29,345l-8.64-1-5.9,7.26-15.9-2.56L116.48,363l3.93,2.16,3.73,6.48,8.64.59,4.71-5.3,8.83.2,1.38,13.15,6.48-.59,3.34-3.14L162,378l3.34,10.6,7.85,6.67,6.48-1,7.27-7.65,5.1,1.17,3.73,2-8.25,6.67-2.94,6.68s.39,1-.2,1-10.21,2.16-10.21,2.16l-13.35-8.44s-13.35.78-13.74.2S141,408,141,408h-4.71l-2.75-5.1-5.1,4.9,2.35,7.86-12.17,9a21.14,21.14,0,0,0-3.74-1.19c-.78,0-3.53,6.09-3.53,6.09s-6.48,3.34-6.28,2.95-2.16,5.69-2.16,5.69l-14.34.17-5.89.79.39,5.5Z"/><path class="cls-1" d="M60.27,200.62l16.49,21,9.23-.2,1.77-9.62L96.2,210l1.18,10.41,6.48,4.91-2.75,5.5,7.46,2.16,2.16-3.73,7.07,5.1,4.71-.59,4.32-8.05,12.57-1,1.18-17.47-8.45,1.37L128,207.1l9.23-8.1-.59-4.32-5.3-2.55-1.18-6.29,1.18-8.05-10-6.08h-6.68l-2.75,2.55-7.07-2.36L101.11,179l-5.3-1s-3.34-2.16-3.93-2.16S84,189.57,84,189.57l-9.82-.78,3.34,6.67-17.28,5.12Z"/><rect class="cls-2" x="1.5" y="263.92" width="250" height="43" rx="5"/><path class="cls-3" d="M296.57,224.55l-10.38-10.38a1,1,0,0,0-1.35,0h0l0,0a3.36,3.36,0,0,0-.56,4l-10.86,9.32a4.53,4.53,0,0,0-6.22.18l-.06.07a.94.94,0,0,0,0,1.35h0l6.21,6.22-6.05,6c-.12.13-3,3.08-4.87,5.43s-2.15,2.65-2.17,2.67a1,1,0,0,0,1.36,1.35s.41-.36,2.66-2.17,5.3-4.74,5.44-4.88l6-6,5.89,5.88a.94.94,0,0,0,1.35,0l.07-.06a4.53,4.53,0,0,0,.18-6.22l9.31-10.86a3.36,3.36,0,0,0,4-.56l.05,0a.94.94,0,0,0,0-1.35S296.58,224.54,296.57,224.55Z"/><path class="cls-4" d="M19.13,282.14H14.92v-1.37h6v1c-2.09,2.6-2.45,4.45-2.61,7.93H16.66A12.47,12.47,0,0,1,19.13,282.14Z"/><path class="cls-4" d="M25.45,280.53h1.63v7.79h3.8v1.37H25.45Z"/><path class="cls-4" d="M32.15,280.69a1,1,0,1,1,1,.91A.92.92,0,0,1,32.15,280.69Zm.19,2.12H34v6.88H32.34Z"/><path class="cls-4" d="M36,282.81h1.32l.12.93h0a3.18,3.18,0,0,1,2.25-1.1c1.48,0,2.12,1,2.12,2.73v4.32H40.26v-4.11c0-1.13-.33-1.56-1.07-1.56a2.17,2.17,0,0,0-1.57.86v4.81H36Z"/><path class="cls-4" d="M43.43,286.25c0-2.24,1.4-3.61,2.91-3.61a2.5,2.5,0,0,1,1.8.76l-.06-1.11v-2.5H49.7v9.9H48.37l-.12-.75h0a2.9,2.9,0,0,1-2,.92C44.54,289.86,43.43,288.52,43.43,286.25Zm4.65,1.5v-3.21a2,2,0,0,0-1.4-.57c-.87,0-1.6.83-1.6,2.27s.58,2.28,1.57,2.28A1.8,1.8,0,0,0,48.08,287.75Z"/><path class="cls-4" d="M51.06,288.9l.75-1a3,3,0,0,0,1.9.77c.75,0,1.1-.35,1.1-.82s-.74-.84-1.48-1.12c-.9-.34-1.93-.86-1.93-2s1-2.06,2.5-2.06a3.74,3.74,0,0,1,2.29.82l-.74,1a2.6,2.6,0,0,0-1.51-.6c-.69,0-1,.34-1,.77s.7.75,1.44,1c.93.35,2,.8,2,2.08s-.94,2.14-2.68,2.14A4.31,4.31,0,0,1,51.06,288.9Z"/><path class="cls-4" d="M57.41,287.84c0-1.47,1.22-2.24,4-2.55,0-.74-.32-1.35-1.25-1.35a3.79,3.79,0,0,0-1.93.68l-.59-1.08a5.3,5.3,0,0,1,2.82-.9c1.72,0,2.57,1.06,2.57,3v4.08H61.74l-.12-.76h0a3.39,3.39,0,0,1-2.14.93A1.93,1.93,0,0,1,57.41,287.84Zm4,0V286.3c-1.86.23-2.49.72-2.49,1.41s.42.88,1,.88A2.17,2.17,0,0,0,61.45,287.84Z"/><path class="cls-4" d="M64.56,292.37l.29-1.25a2,2,0,0,0,.5.1A1.46,1.46,0,0,0,66.72,290l.13-.44-2.71-6.79h1.64L67,286.18c.2.61.4,1.29.6,1.94h.06l.52-1.94,1-3.37h1.56L68.25,290c-.57,1.55-1.29,2.51-2.8,2.51A2.77,2.77,0,0,1,64.56,292.37Z"/><path class="cls-4" d="M73.39,289h0l-.14.73H71.93v-9.9h1.61v2.56l0,1.15a3.09,3.09,0,0,1,2-.86c1.72,0,2.71,1.38,2.71,3.49,0,2.36-1.41,3.73-2.94,3.73A2.73,2.73,0,0,1,73.39,289Zm3.15-2.8c0-1.37-.45-2.19-1.49-2.19a2.15,2.15,0,0,0-1.51.78V288a2.14,2.14,0,0,0,1.38.57C75.84,288.52,76.54,287.71,76.54,286.16Z"/><path class="cls-4" d="M79.36,286.25a3.35,3.35,0,0,1,3.17-3.61c1.86,0,2.84,1.34,2.84,3.27a3.92,3.92,0,0,1-.07.78H80.93a2,2,0,0,0,2,1.92,3,3,0,0,0,1.6-.5l.55,1a4.32,4.32,0,0,1-2.36.75A3.33,3.33,0,0,1,79.36,286.25Zm4.62-.66c0-1.06-.48-1.7-1.42-1.7a1.72,1.72,0,0,0-1.64,1.7Z"/><path class="cls-4" d="M86.3,290.94a1.76,1.76,0,0,1,1-1.47v-.06a1.31,1.31,0,0,1-.62-1.15,1.65,1.65,0,0,1,.76-1.28v-.06a2.27,2.27,0,0,1-.91-1.81,2.51,2.51,0,0,1,2.72-2.47,3.11,3.11,0,0,1,1,.17h2.46V284H91.46a1.75,1.75,0,0,1,.4,1.15,2.35,2.35,0,0,1-2.62,2.35,2.64,2.64,0,0,1-.93-.18A.77.77,0,0,0,88,288c0,.39.28.63,1.12.63h1.22c1.65,0,2.52.51,2.52,1.69,0,1.36-1.42,2.43-3.67,2.43C87.52,292.73,86.3,292.14,86.3,290.94Zm5-.37c0-.53-.42-.69-1.21-.69h-.94a3.58,3.58,0,0,1-.93-.1,1.15,1.15,0,0,0-.54.91c0,.63.68,1,1.76,1S91.27,291.16,91.27,290.57Zm-.84-5.46a1.2,1.2,0,1,0-2.38,0,1.2,1.2,0,1,0,2.38,0Z"/><path class="cls-4" d="M97,280.53h3.09c1.9,0,3.37.67,3.37,2.71s-1.47,2.87-3.37,2.87H98.61v3.58H97Zm2.92,4.28c1.25,0,1.94-.52,1.94-1.57s-.69-1.41-1.94-1.41h-1.3v3Zm-.14.86,1.18-1,2.86,5H102Z"/><path class="cls-4" d="M104.54,286.25a3.29,3.29,0,1,1,3.28,3.61A3.33,3.33,0,0,1,104.54,286.25Zm4.89,0c0-1.38-.61-2.29-1.61-2.29s-1.62.91-1.62,2.29.61,2.29,1.62,2.29S109.43,287.63,109.43,286.25Z"/><path class="cls-4" d="M112.15,287.84c0-1.47,1.22-2.24,4-2.55,0-.74-.32-1.35-1.25-1.35a3.79,3.79,0,0,0-1.93.68l-.6-1.08a5.37,5.37,0,0,1,2.83-.9c1.72,0,2.56,1.06,2.56,3v4.08h-1.32l-.12-.76h0a3.34,3.34,0,0,1-2.13.93A1.93,1.93,0,0,1,112.15,287.84Zm4,0V286.3c-1.86.23-2.49.72-2.49,1.41s.42.88,1,.88A2.17,2.17,0,0,0,116.19,287.84Z"/><path class="cls-4" d="M119.32,286.25c0-2.24,1.41-3.61,2.91-3.61a2.54,2.54,0,0,1,1.81.76l-.06-1.11v-2.5h1.61v9.9h-1.32l-.13-.75h0a2.9,2.9,0,0,1-2,.92C120.43,289.86,119.32,288.52,119.32,286.25Zm4.66,1.5v-3.21a2.06,2.06,0,0,0-1.41-.57c-.87,0-1.59.83-1.59,2.27s.57,2.28,1.56,2.28A1.83,1.83,0,0,0,124,287.75Z"/><path class="cls-4" d="M127.27,291.35a1.92,1.92,0,0,0,1.42-1.74l-.08-1.21.62,1a.92.92,0,0,1-.67.25,1,1,0,0,1-1-1,1,1,0,0,1,1.07-1c.77,0,1.21.62,1.21,1.66a3,3,0,0,1-2.18,2.91Z"/><path class="cls-4" d="M133.8,288.51l.94-1.11a3.63,3.63,0,0,0,2.39,1c1,0,1.6-.46,1.6-1.18s-.59-1-1.42-1.35l-1.26-.54a2.62,2.62,0,0,1-1.85-2.43c0-1.46,1.29-2.58,3.08-2.58a4,4,0,0,1,2.82,1.17l-.83,1a3,3,0,0,0-2-.79c-.87,0-1.44.41-1.44,1.08s.7,1,1.46,1.29l1.24.52a2.54,2.54,0,0,1,1.85,2.47c0,1.49-1.24,2.73-3.29,2.73A4.7,4.7,0,0,1,133.8,288.51Z"/><path class="cls-4" d="M141.46,286.25a3.4,3.4,0,0,1,3.45-3.61,2.9,2.9,0,0,1,2,.77l-.78,1A1.67,1.67,0,0,0,145,284c-1.11,0-1.88.91-1.88,2.29s.76,2.29,1.83,2.29a2.27,2.27,0,0,0,1.42-.59L147,289a3.39,3.39,0,0,1-2.24.85A3.28,3.28,0,0,1,141.46,286.25Z"/><path class="cls-4" d="M147.59,286.25a3.29,3.29,0,1,1,3.28,3.61A3.33,3.33,0,0,1,147.59,286.25Zm4.89,0c0-1.38-.61-2.29-1.61-2.29s-1.62.91-1.62,2.29.61,2.29,1.62,2.29S152.48,287.63,152.48,286.25Z"/><path class="cls-4" d="M155.67,287.37v-3.28h-1v-1.21l1.06-.07.19-1.88h1.34v1.88H159v1.28h-1.75v3.28c0,.8.31,1.2,1,1.2a2.36,2.36,0,0,0,.72-.15l.28,1.18a4.32,4.32,0,0,1-1.41.26C156.25,289.86,155.67,288.85,155.67,287.37Z"/><path class="cls-4" d="M160.48,287.92v-8.13h1.61V288c0,.4.18.54.35.54a.87.87,0,0,0,.25,0l.2,1.21a2.39,2.39,0,0,1-.85.14C160.9,289.86,160.48,289.12,160.48,287.92Z"/><path class="cls-4" d="M163.9,287.84c0-1.47,1.23-2.24,4-2.55,0-.74-.32-1.35-1.25-1.35a3.79,3.79,0,0,0-1.93.68l-.6-1.08a5.34,5.34,0,0,1,2.83-.9c1.72,0,2.56,1.06,2.56,3v4.08h-1.32l-.12-.76h-.05a3.34,3.34,0,0,1-2.13.93A1.93,1.93,0,0,1,163.9,287.84Zm4,0V286.3c-1.87.23-2.49.72-2.49,1.41s.42.88,1,.88A2.19,2.19,0,0,0,168,287.84Z"/><path class="cls-4" d="M171.5,282.81h1.32l.12.93H173a3.19,3.19,0,0,1,2.26-1.1c1.47,0,2.11,1,2.11,2.73v4.32h-1.61v-4.11c0-1.13-.33-1.56-1.07-1.56a2.17,2.17,0,0,0-1.57.86v4.81H171.5Z"/><path class="cls-4" d="M178.92,286.25c0-2.24,1.4-3.61,2.91-3.61a2.5,2.5,0,0,1,1.8.76l-.06-1.11v-2.5h1.62v9.9h-1.33l-.12-.75h0a2.9,2.9,0,0,1-2,.92C180,289.86,178.92,288.52,178.92,286.25Zm4.65,1.5v-3.21a2,2,0,0,0-1.4-.57c-.87,0-1.59.83-1.59,2.27s.57,2.28,1.56,2.28A1.8,1.8,0,0,0,183.57,287.75Z"/><path class="cls-4" d="M189.69,285.14c0-3,1.9-4.78,4.34-4.78a3.77,3.77,0,0,1,2.77,1.16l-.87,1.05a2.48,2.48,0,0,0-1.85-.8c-1.63,0-2.72,1.26-2.72,3.32s1,3.35,2.81,3.35a2,2,0,0,0,1.3-.4v-2h-1.72v-1.33h3.18v4a4.19,4.19,0,0,1-2.92,1.09C191.54,289.86,189.69,288.17,189.69,285.14Z"/><path class="cls-4" d="M198.42,285.5c0-3.46,1.68-4.89,3.5-4.89a3.22,3.22,0,0,1,2.38,1l-.86,1a2,2,0,0,0-1.43-.67c-1.15,0-2.1.9-2.1,3.58,0,2.2.71,3.12,1.72,3.12.74,0,1.33-.6,1.33-1.69s-.52-1.59-1.41-1.59a2,2,0,0,0-1.64,1.11l-.07-1.13a2.69,2.69,0,0,1,2-1.15,2.44,2.44,0,0,1,2.6,2.76,2.78,2.78,0,0,1-2.8,2.93C199.91,289.86,198.42,288.5,198.42,285.5Z"/><path class="cls-4" d="M205.64,288.85l.87-1a2,2,0,0,0,1.42.67c1.17,0,2.11-.9,2.11-3.58,0-2.2-.71-3.12-1.72-3.12-.74,0-1.33.6-1.33,1.69s.52,1.59,1.4,1.59A2,2,0,0,0,210,284l.07,1.13a2.66,2.66,0,0,1-2,1.15,2.44,2.44,0,0,1-2.6-2.76,2.77,2.77,0,0,1,2.8-2.92c1.74,0,3.23,1.35,3.23,4.35,0,3.46-1.68,4.9-3.51,4.9A3.22,3.22,0,0,1,205.64,288.85Z"/><path class="cls-4" d="M215.62,288.85l.87-1a2,2,0,0,0,1.43.67c1.16,0,2.1-.9,2.1-3.58,0-2.2-.71-3.12-1.72-3.12-.74,0-1.33.6-1.33,1.69s.52,1.59,1.41,1.59A2,2,0,0,0,220,284l.07,1.13a2.66,2.66,0,0,1-2,1.15,2.44,2.44,0,0,1-2.6-2.76,2.78,2.78,0,0,1,2.8-2.92c1.74,0,3.23,1.35,3.23,4.35,0,3.46-1.68,4.9-3.51,4.9A3.24,3.24,0,0,1,215.62,288.85Z"/><path class="cls-4" d="M223.31,280.53h2.44c2.81,0,4.47,1.51,4.47,4.54s-1.66,4.62-4.38,4.62h-2.53Zm2.34,7.84c1.84,0,2.9-1.05,2.9-3.3s-1.06-3.23-2.9-3.23h-.72v6.53Z"/><path class="cls-4" d="M232.06,280.53h3.09c1.9,0,3.37.67,3.37,2.71s-1.47,2.87-3.37,2.87h-1.47v3.58h-1.62Zm2.92,4.28c1.25,0,1.94-.52,1.94-1.57s-.69-1.41-1.94-1.41h-1.3v3Zm-.14.86,1.18-1,2.86,5h-1.83Z"/></g></g></svg>