<svg width="844" height="479" viewBox="0 0 844 479" fill="none" xmlns="http://www.w3.org/2000/svg">
<path d="M979.442 35C979.442 160.369 549.785 479 325.281 479C100.778 479 27.4415 111.869 27.4415 -13.5C27.4415 -138.869 -83.5622 -166.5 140.942 -166.5C365.445 -166.5 979.442 -90.3686 979.442 35Z" fill="url(#paint0_linear_13_132)"/>
<path d="M1010.24 -13.5C1010.24 111.869 580.586 430.5 356.083 430.5C131.579 430.5 58.2427 63.3686 58.2427 -62C58.2427 -187.369 -52.761 -215 171.743 -215C396.247 -215 1010.24 -138.869 1010.24 -13.5Z" fill="#C4C4C4"/>
<path d="M1010.24 -13.5C1010.24 111.869 580.586 430.5 356.083 430.5C131.579 430.5 58.2427 63.3686 58.2427 -62C58.2427 -187.369 -52.761 -215 171.743 -215C396.247 -215 1010.24 -138.869 1010.24 -13.5Z" fill="url(#paint1_linear_13_132)"/>
<path d="M136.5 182C147.667 222 220.274 376.783 344 398C392.687 406.349 489.391 371.668 587.5 325.369C738.711 254.01 893.261 155.053 880.5 143.5" stroke="#F7D4D4" stroke-opacity="0.43" stroke-width="31" stroke-linecap="round"/>
<defs>
<linearGradient id="paint0_linear_13_132" x1="505.122" y1="-215" x2="505.122" y2="479" gradientUnits="userSpaceOnUse">
<stop stop-color="#163C69"/>
<stop offset="1" stop-color="#6EB4DB"/>
</linearGradient>
<linearGradient id="paint1_linear_13_132" x1="505.122" y1="-215" x2="505.122" y2="479" gradientUnits="userSpaceOnUse">
<stop stop-color="#004769"/>
<stop offset="1" stop-color="#C04B2D"/>
</linearGradient>
</defs>
</svg>
